# xmcd
#
# Track frame offsets:
#	182
#	11107
#	25382
#	38712
#	57020
#	68197
#	79092
#	89755
#	101277
#	111090
#	122275
#	133367
#	147115
#	160155
#
# Disc length: 2266
#
# Revision: 8
# Processed by: cddbd v1.5.1PL0 Copyright (c) Steve Scherf et al.
# Submitted via: CDex 1.40Beta9
# Normalized: r7:TDELIM( - )
#
DISCID=b708d80e
DTITLE=Various Artist - Country Ballads [CD1]
DYEAR=1992
DGENRE=Country
TTITLE0=Hank Locklin - Send me the pillow
TTITLE1=Billie Jo Spears - Crying time
TTITLE2=Patti Page - Tennessee Waltz
TTITLE3=Skeeter Davis - Just when I needed you most
TTITLE4=George Jones - Tender Years
TTITLE5=Sammi Smith - Help me make it through the night
TTITLE6=Freddy Fender - A man can cry
TTITLE7=Dolly Parton - Makin' believe
TTITLE8=Willie Nelson - Let's pretend
TTITLE9=Anne Murray - Last thing on my mind
TTITLE10=Wanda Jackson - Tears will be the chaser
TTITLE11=Kenny Rogers - I'm gonna sing you a sad song Suzy
TTITLE12=Patsy Cline - Fingerprints
TTITLE13=Conway Twitty - It's only make believe
EXTD=YEAR: 1992 ID3G: 2
EXTT0=
EXTT1=
EXTT2=
EXTT3=
EXTT4=
EXTT5=
EXTT6=
EXTT7=
EXTT8=
EXTT9=
EXTT10=
EXTT11=
EXTT12=
EXTT13=
PLAYORDER=
